<?xml version="1.0" encoding="UTF-8"?>
<svg id="_Слой_2" data-name="Слой 2" xmlns="http://www.w3.org/2000/svg" viewBox="0 0 765.32 172.87">
  <defs>
    <style>
      .cls-1, .cls-2 {
        fill: #fff;
      }

      .cls-2 {
        fill-rule: evenodd;
      }

      .cls-3 {
        fill: #0f6bb4;
      }
    </style>
  </defs>
  <g id="Layer_1" data-name="Layer 1">
    <g>
      <g>
        <path class="cls-1" d="M229.98,167.21v-36.37h16.13c3.24,0,5.71.33,7.39.98,1.69.65,3.04,1.81,4.04,3.46,1.01,1.65,1.51,3.48,1.51,5.48,0,2.58-.84,4.76-2.51,6.53-1.67,1.77-4.25,2.89-7.74,3.37,1.27.61,2.24,1.22,2.9,1.81,1.41,1.29,2.74,2.9,4,4.84l6.33,9.9h-6.05l-4.81-7.57c-1.41-2.18-2.56-3.85-3.47-5.01-.91-1.16-1.72-1.97-2.44-2.43-.72-.46-1.45-.79-2.2-.97-.55-.12-1.44-.17-2.68-.17h-5.58v16.15h-4.81ZM234.8,146.89h10.35c2.2,0,3.92-.23,5.16-.68,1.24-.45,2.18-1.18,2.83-2.18.65-1,.97-2.09.97-3.26,0-1.72-.62-3.13-1.87-4.24-1.25-1.11-3.22-1.66-5.92-1.66h-11.51v12.03ZM284.08,158.72l4.62.57c-.73,2.7-2.08,4.79-4.04,6.28-1.97,1.49-4.48,2.23-7.54,2.23-3.85,0-6.91-1.19-9.17-3.56-2.26-2.37-3.39-5.7-3.39-9.99s1.14-7.87,3.42-10.32c2.28-2.45,5.24-3.67,8.88-3.67s6.4,1.2,8.64,3.6c2.23,2.4,3.35,5.77,3.35,10.12,0,.26,0,.66-.02,1.19h-19.65c.17,2.89.98,5.11,2.46,6.65,1.47,1.54,3.31,2.31,5.51,2.31,1.64,0,3.04-.43,4.19-1.29,1.16-.86,2.08-2.23,2.75-4.12ZM269.42,151.5h14.72c-.2-2.22-.76-3.88-1.69-4.99-1.42-1.72-3.27-2.58-5.53-2.58-2.05,0-3.78.69-5.17,2.06-1.4,1.37-2.17,3.21-2.32,5.51ZM302.1,163.39c.5,0,1.15-.06,1.96-.17l.64,3.95c-1.26.26-2.38.4-3.37.4-1.62,0-2.88-.26-3.77-.77-.89-.51-1.52-1.19-1.89-2.02-.36-.84-.55-2.59-.55-5.27v-15.16h-3.28v-3.47h3.28v-6.53l4.44-2.68v9.21h4.49v3.47h-4.49v15.41c0,1.27.08,2.09.24,2.46.16.36.41.65.77.87.36.22.86.32,1.53.32h0ZM326.53,167.21c-.46-.93-.76-2.01-.89-3.25-1.65,1.41-3.25,2.4-4.78,2.98-1.53.58-3.17.87-4.93.87-2.9,0-5.12-.71-6.68-2.12-1.56-1.41-2.33-3.22-2.33-5.42,0-1.29.29-2.47.88-3.54.59-1.07,1.36-1.92,2.31-2.57.95-.65,2.02-1.13,3.21-1.46.88-.23,2.2-.45,3.97-.67,3.61-.43,6.26-.94,7.97-1.54.02-.61.02-1,.02-1.17,0-1.82-.42-3.1-1.27-3.85-1.14-1.01-2.84-1.51-5.09-1.51-2.1,0-3.65.37-4.65,1.1-1,.74-1.74,2.04-2.22,3.91l-4.37-.6c.4-1.87,1.05-3.38,1.96-4.53.91-1.15,2.22-2.03,3.95-2.65,1.72-.62,3.71-.93,5.98-.93s4.08.26,5.48.79c1.41.53,2.44,1.2,3.1,2,.66.8,1.12,1.82,1.39,3.04.15.76.22,2.13.22,4.12v5.95c0,4.15.09,6.78.29,7.88.19,1.1.57,2.15,1.13,3.16h-4.67ZM325.26,153.98c-1.62.66-4.05,1.22-7.3,1.69-1.84.26-3.14.56-3.9.89-.76.33-1.35.81-1.76,1.45-.41.64-.62,1.34-.62,2.12,0,1.19.45,2.18,1.35,2.98.9.79,2.22,1.19,3.96,1.19s3.25-.38,4.59-1.13c1.34-.75,2.32-1.78,2.95-3.09.48-1.01.72-2.5.72-4.47v-1.64ZM336.72,135.97v-5.14h4.47v5.14h-4.47ZM336.72,167.21v-26.35h4.47v26.35h-4.47ZM347.88,167.21v-36.37h4.47v36.37h-4.47ZM377.31,158.72l4.62.57c-.73,2.7-2.08,4.79-4.04,6.28-1.97,1.49-4.48,2.23-7.54,2.23-3.86,0-6.91-1.19-9.17-3.56-2.26-2.37-3.39-5.7-3.39-9.99s1.14-7.87,3.42-10.32c2.28-2.45,5.24-3.67,8.88-3.67s6.4,1.2,8.64,3.6c2.23,2.4,3.35,5.77,3.35,10.12,0,.26,0,.66-.02,1.19h-19.65c.17,2.89.98,5.11,2.46,6.65s3.31,2.31,5.51,2.31c1.64,0,3.04-.43,4.19-1.29,1.16-.86,2.08-2.23,2.75-4.12ZM362.65,151.5h14.72c-.2-2.22-.76-3.88-1.69-4.99-1.42-1.72-3.27-2.58-5.53-2.58-2.05,0-3.78.69-5.17,2.06-1.4,1.37-2.17,3.21-2.32,5.51ZM387.48,167.21v-26.35h4.02v3.99c1.03-1.87,1.97-3.1,2.84-3.7.87-.6,1.82-.89,2.87-.89,1.51,0,3.04.48,4.59,1.44l-1.54,4.14c-1.09-.65-2.18-.97-3.28-.97-.98,0-1.85.29-2.63.88-.78.59-1.33,1.4-1.66,2.44-.5,1.59-.74,3.32-.74,5.21v13.8h-4.47ZM402.68,159.34l4.42-.69c.25,1.77.94,3.13,2.07,4.07,1.13.94,2.72,1.41,4.75,1.41s3.57-.42,4.57-1.25c.99-.84,1.49-1.82,1.49-2.94,0-1.01-.44-1.8-1.32-2.38-.61-.4-2.13-.9-4.57-1.51-3.28-.83-5.55-1.54-6.81-2.15-1.27-.6-2.23-1.44-2.88-2.51-.65-1.07-.98-2.25-.98-3.54,0-1.17.27-2.26.81-3.26.54-1,1.27-1.83,2.2-2.49.69-.51,1.64-.95,2.84-1.3,1.2-.36,2.49-.53,3.86-.53,2.07,0,3.88.3,5.45.89,1.56.6,2.72,1.4,3.46,2.42.74,1.02,1.26,2.38,1.54,4.08l-4.37.6c-.2-1.36-.77-2.41-1.72-3.18-.95-.76-2.3-1.14-4.03-1.14-2.05,0-3.52.34-4.39,1.02-.88.68-1.32,1.47-1.32,2.38,0,.58.18,1.1.55,1.56.36.48.93.88,1.71,1.19.45.17,1.76.55,3.95,1.14,3.16.84,5.36,1.53,6.61,2.07,1.25.54,2.23,1.32,2.94,2.34.71,1.03,1.07,2.3,1.07,3.82s-.43,2.89-1.3,4.21c-.87,1.32-2.12,2.33-3.76,3.05-1.64.72-3.49,1.08-5.56,1.08-3.42,0-6.03-.71-7.83-2.13-1.8-1.42-2.94-3.53-3.44-6.33Z"/>
        <g>
          <path class="cls-1" d="M385.62,30.38c2.86.1,5.78.44,8.74,1,2.97.56,5.83,1.43,8.59,2.61,2.76,1.18,5.27,2.79,7.52,4.83,2.35,2.15,4.22,4.68,5.6,7.59,1.38,2.91,2.43,5.86,3.15,8.82.71,2.97,1.17,5.88,1.38,8.74.2,2.86.31,5.37.31,7.52,0,8.69-1,15.67-2.99,20.94-1.99,5.27-4.48,9.33-7.44,12.2-2.15,2.05-4.63,3.66-7.44,4.83-2.81,1.18-5.73,2.05-8.74,2.61-3.02.56-5.96.92-8.82,1.07-2.86.15-5.47.23-7.82.23s-5.12-.08-7.98-.23c-2.86-.15-5.78-.51-8.74-1.07-2.97-.56-5.83-1.43-8.59-2.61-2.76-1.17-5.27-2.79-7.52-4.83-2.45-2.25-4.37-4.81-5.75-7.67-1.38-2.86-2.4-5.8-3.07-8.82-.67-3.02-1.1-5.93-1.3-8.74-.21-2.81-.31-5.24-.31-7.29,0-2.25.1-4.86.31-7.82.2-2.97.66-5.96,1.38-8.97.71-3.02,1.76-5.98,3.15-8.9,1.38-2.91,3.25-5.45,5.6-7.59,2.25-2.04,4.76-3.66,7.52-4.83,2.76-1.17,5.62-2.04,8.59-2.61,2.97-.56,5.88-.89,8.74-1,2.86-.1,5.52-.15,7.98-.15s5.11.05,7.98.15ZM353.63,82.69c.46,3.79,1.97,7.16,4.53,10.13,2.66,2.97,5.75,4.83,9.28,5.6,3.53.77,6.93,1.15,10.2,1.15s6.77-.38,10.2-1.15c3.43-.77,6.47-2.63,9.13-5.6,2.66-2.97,4.22-6.29,4.68-9.97s.69-7.31.69-10.89v-4.91c0-1.84-.15-3.73-.46-5.68-.31-1.94-.82-3.86-1.53-5.75-.72-1.89-1.79-3.61-3.22-5.14-1.33-1.43-2.79-2.58-4.37-3.45-1.59-.87-3.22-1.53-4.91-1.99s-3.4-.74-5.14-.84c-1.74-.1-3.43-.15-5.06-.15-1.43,0-3.04.05-4.83.15-1.79.1-3.55.38-5.29.84-1.74.46-3.45,1.13-5.14,1.99-1.69.87-3.15,2.02-4.37,3.45-1.23,1.43-2.2,3.12-2.91,5.06-.72,1.94-1.23,3.91-1.53,5.91-.31,1.99-.49,3.91-.54,5.75-.05,1.84-.08,3.43-.08,4.76,0,3.38.23,6.96.69,10.74Z"/>
          <path class="cls-1" d="M447.6,112.45c-2.35,0-4.63-.15-6.83-.46-2.2-.31-4.22-1.33-6.06-3.07-1.64-1.53-2.66-3.2-3.07-4.99-.41-1.79-.61-3.5-.61-5.14V5.06h17.95v26.08h23.78c2.45,0,4.99.15,7.59.46s5.16.92,7.67,1.84c2.5.92,4.88,2.25,7.13,3.99,2.25,1.74,4.24,4.09,5.98,7.06,2.25,3.79,3.71,8.05,4.37,12.81.66,4.76,1,9.74,1,14.96,0,6.65-.46,12.1-1.38,16.34-.92,4.25-2.2,7.75-3.84,10.51-1.64,2.86-3.58,5.17-5.83,6.9-2.25,1.74-4.63,3.09-7.13,4.07-2.51.97-5.06,1.61-7.67,1.92s-5.09.46-7.44.46h-25.62ZM448.98,91.9c0,.82.02,1.71.08,2.68.05.97.43,1.87,1.15,2.68.61.61,1.35,1,2.22,1.15.87.15,1.76.23,2.68.23h13.04c1.23,0,2.61-.05,4.14-.15,1.53-.1,3.07-.43,4.6-1,1.53-.56,3.04-1.38,4.53-2.45,1.48-1.07,2.74-2.63,3.76-4.68.51-1.12,1.1-2.94,1.76-5.45.66-2.5,1-6.47,1-11.89,0-6.44-.38-11.1-1.15-13.96-.77-2.86-1.3-4.6-1.61-5.22-.92-1.84-2.02-3.35-3.3-4.53-1.28-1.17-2.66-2.1-4.14-2.76-1.48-.66-3.02-1.1-4.6-1.3-1.59-.2-3.04-.31-4.37-.31h-19.79v46.95Z"/>
          <path class="cls-3" d="M565.73,30.38c2.86.1,5.78.44,8.74,1,2.97.56,5.83,1.43,8.59,2.61,2.76,1.18,5.27,2.79,7.52,4.83,2.35,2.15,4.22,4.68,5.6,7.59,1.38,2.91,2.43,5.86,3.15,8.82.71,2.97,1.17,5.88,1.38,8.74.2,2.86.31,5.37.31,7.52,0,8.69-1,15.67-2.99,20.94-1.99,5.27-4.48,9.33-7.44,12.2-2.15,2.05-4.63,3.66-7.44,4.83-2.81,1.18-5.73,2.05-8.74,2.61-3.02.56-5.96.92-8.82,1.07-2.86.15-5.47.23-7.82.23s-5.12-.08-7.98-.23c-2.86-.15-5.78-.51-8.74-1.07-2.97-.56-5.83-1.43-8.59-2.61-2.76-1.17-5.27-2.79-7.52-4.83-2.45-2.25-4.37-4.81-5.75-7.67-1.38-2.86-2.4-5.8-3.07-8.82-.67-3.02-1.1-5.93-1.3-8.74-.21-2.81-.31-5.24-.31-7.29,0-2.25.1-4.86.31-7.82.2-2.97.66-5.96,1.38-8.97.71-3.02,1.76-5.98,3.15-8.9,1.38-2.91,3.25-5.45,5.6-7.59,2.25-2.04,4.76-3.66,7.52-4.83,2.76-1.17,5.62-2.04,8.59-2.61,2.97-.56,5.88-.89,8.74-1,2.86-.1,5.52-.15,7.98-.15s5.11.05,7.98.15ZM533.74,82.69c.46,3.79,1.97,7.16,4.53,10.13,2.66,2.97,5.75,4.83,9.28,5.6,3.53.77,6.93,1.15,10.2,1.15s6.77-.38,10.2-1.15c3.43-.77,6.47-2.63,9.13-5.6,2.66-2.97,4.22-6.29,4.68-9.97s.69-7.31.69-10.89v-4.91c0-1.84-.15-3.73-.46-5.68-.31-1.94-.82-3.86-1.53-5.75-.72-1.89-1.79-3.61-3.22-5.14-1.33-1.43-2.79-2.58-4.37-3.45-1.59-.87-3.22-1.53-4.91-1.99s-3.4-.74-5.14-.84c-1.74-.1-3.43-.15-5.06-.15-1.43,0-3.04.05-4.83.15-1.79.1-3.55.38-5.29.84-1.74.46-3.45,1.13-5.14,1.99-1.69.87-3.15,2.02-4.37,3.45-1.23,1.43-2.2,3.12-2.91,5.06-.72,1.94-1.23,3.91-1.53,5.91-.31,1.99-.49,3.91-.54,5.75-.05,1.84-.08,3.43-.08,4.76,0,3.38.23,6.96.69,10.74Z"/>
          <path class="cls-3" d="M646.12,112.45c-5.52,0-9.9-.48-13.12-1.46-3.22-.97-6.11-2.48-8.67-4.53-2.66-2.15-4.68-4.81-6.06-7.98-1.38-3.17-2.07-7.36-2.07-12.58v-40.96h-11.2v-13.81h11.2V5.06h17.95v26.08h22.71v13.81h-22.71v37.28c0,1.53.13,3.07.38,4.6.25,1.53.71,3.04,1.38,4.53.66,1.48,1.66,2.74,2.99,3.76,2.04,1.74,4.47,2.76,7.29,3.07,2.81.31,5.04.46,6.67.46h4.45v13.81h-11.2Z"/>
          <path class="cls-3" d="M666.52,19.33V5.06h17.95v14.27h-17.95ZM666.52,31.14h17.95v81.31h-17.95V31.14Z"/>
          <path class="cls-3" d="M726.2,112.45c-1.53,0-3.32-.1-5.37-.31-2.05-.2-4.14-.66-6.29-1.38-2.15-.71-4.32-1.74-6.52-3.07-2.2-1.33-4.22-3.07-6.06-5.22-3.38-3.99-5.45-8.46-6.21-13.42-.77-4.96-1.15-10.36-1.15-16.19,0-2.45.05-5.11.15-7.98.1-2.86.46-5.75,1.07-8.67.61-2.91,1.53-5.78,2.76-8.59,1.23-2.81,2.97-5.39,5.22-7.75.82-.82,1.89-1.74,3.22-2.76,1.33-1.02,2.99-1.97,4.99-2.84,1.99-.87,4.35-1.61,7.06-2.22,2.71-.61,5.91-.92,9.59-.92h34.83v13.81h-29c-6.04,0-10.61,1.28-13.73,3.84-3.12,2.56-5.19,5.58-6.21,9.05-.31,1.13-.56,2.43-.77,3.91-.21,1.48-.33,2.97-.38,4.45-.05,1.48-.1,2.86-.15,4.14-.05,1.28-.08,2.22-.08,2.84,0,1.23.02,2.58.08,4.07.05,1.48.18,2.99.38,4.53.2,1.53.48,3.04.84,4.53.36,1.48.79,2.74,1.3,3.76,1.02,1.94,2.3,3.48,3.84,4.6,1.53,1.13,3.22,1.99,5.06,2.61s3.76,1,5.75,1.15c1.99.15,3.91.23,5.75.23h29.15v13.81h-39.12Z"/>
          <g>
            <path class="cls-1" d="M230.06,112.33h20.23v-60.96c0-.78-.81-1.29-1.51-.95l-18.12,8.65c-.37.18-.6.55-.6.95v52.3Z"/>
            <path class="cls-1" d="M287.98,74.48v-.77h13.79c3.06,0,5.72-.33,7.97-1,2.25-.66,4.16-1.53,5.75-2.61,1.58-1.07,2.89-2.25,3.91-3.52,1.02-1.28,1.89-2.58,2.61-3.91,2.15-3.98,3.45-8.05,3.91-12.18.46-4.14.69-8.15.69-12.03s-.26-7.87-.77-11.95c-.51-4.08-2.04-7.97-4.6-11.65-1.53-2.35-3.24-4.19-5.13-5.52-1.89-1.33-3.86-2.3-5.9-2.91-2.04-.61-4.09-1-6.13-1.15-2.04-.15-3.98-.23-5.82-.23h-66.33c-.99,0-1.8.81-1.8,1.8v12.54c0,.99.81,1.8,1.8,1.8h24.45c.44-.03.92-.05,1.43-.05h32.79c1.63,0,3.52.13,5.67.38,2.15.26,4.03,1.2,5.67,2.83,1.12,1.13,2.04,2.81,2.76,5.06.71,2.25,1.07,5.52,1.07,9.81,0,.92-.03,2.04-.08,3.37-.05,1.33-.15,2.68-.31,4.06-.15,1.38-.41,2.73-.77,4.06-.36,1.33-.79,2.4-1.3,3.22-1.43,2.15-3.19,3.47-5.29,3.98-2.1.51-4.01.77-5.75.77h-20.23c-2.96,0-5.21.69-6.74,2.07-1.53,1.38-2.3,3.14-2.3,5.29v2.45c0,1.53.56,3.14,1.69,4.83,1.12,1.69,2.25,3.09,3.37,4.21l35.25,34.79h25.44l-40.76-37.85Z"/>
          </g>
        </g>
      </g>
      <g>
        <path class="cls-2" d="M22.15,77.78h-5.52v-7.56h5.74c2.43,0,5.43.73,5.43,3.76,0,3.21-2.83,3.81-5.66,3.81M0,107.78v-51.98h26.36c10.19,0,15.96,5.12,16.94,15.1.33,3.4-.59,9.74-7.36,12.33.67.22,4.92,2.01,6.82,6.19.97,2.14.38,13.06.48,13.91.15,1.22,1.04,2.04,1.68,2.19l-.03,2.26h-15.19c-.85-.09-1.25-3.05-1.26-4.34l-.09-8.64c-.03-2.79-2.23-4.62-4.69-4.62h-8.08v17.6H0Z"/>
        <polygon class="cls-1" points="34.99 5.88 167.44 5.88 167.44 44.7 173.35 44.7 173.35 4.7 168.62 0 33.8 0 29.07 4.7 29.07 44.7 34.99 44.7 34.99 5.88"/>
        <path class="cls-2" d="M92.79,78.07l46.82,13.93-29.45.66-.38,7.8-45.91-15.96,28.04.48.88-6.91ZM121.88,36.69c0-4.39-3.53-7.95-7.89-7.95s-7.89,3.56-7.89,7.95,3.53,7.95,7.89,7.95,7.89-3.56,7.89-7.95ZM96.32,36.69c0-4.39-3.53-7.95-7.89-7.95s-7.89,3.56-7.89,7.95,3.53,7.95,7.89,7.95,7.89-3.56,7.89-7.95ZM71.54,21.9c19.78-5.63,39.56-4.97,59.34,0v11.72h6.31v-5.65h7.15v16.74h-7.15v-6.28h-6.31v17.37h8.52c5.56,0,10.1,4.52,10.1,10.04v46.45h4.52v11.93h-14.31v11.3h9.78v19.25h-44.83v-19.25h8.75v-11.3h-24.41v11.3h8.75v19.25h-44.84v-19.25h9.79v-11.3h-14.31v-11.93h4.52v-46.45c0-5.52,4.55-10.04,10.1-10.04h8.52v-17.37h-6.31v6.28h-7.15v-16.74h7.15v5.65h6.31v-11.72Z"/>
        <polygon class="cls-1" points="167.44 118.47 167.44 166.99 34.99 166.99 34.99 118.47 29.07 118.47 29.07 168.16 33.8 172.87 168.62 172.87 173.35 168.16 173.35 118.47 167.44 118.47"/>
        <path class="cls-2" d="M180.62,77.78h-5.52v-7.56h5.74c2.43,0,5.43.73,5.43,3.76,0,3.21-2.83,3.81-5.66,3.81M158.47,107.78v-51.98h26.36c10.19,0,15.96,5.12,16.94,15.1.33,3.4-.59,9.74-7.36,12.33.67.22,4.92,2.01,6.82,6.19.97,2.14.38,13.06.48,13.91.15,1.22,1.04,2.04,1.68,2.19l-.03,2.26h-15.19c-.85-.09-1.25-3.05-1.26-4.34l-.09-8.64c-.03-2.79-2.23-4.62-4.69-4.62h-8.08v17.6h-15.58Z"/>
      </g>
    </g>
  </g>
</svg>